<svg fill="none" height="641" viewBox="0 0 555 641" width="555" xmlns="http://www.w3.org/2000/svg">
    <g opacity="0.2">
        <path d="M184.941 444.978L62.8098 513.634L251.738 622.711L373.888 554.067L184.941 444.978Z" fill="#3C5185"
            opacity="0.0196"></path>
        <path d="M184.943 444.978L65.1516 512.321L254.08 621.404L373.89 554.067L184.943 444.978Z" fill="#3C5185"
            opacity="0.0392"></path>
        <path d="M184.942 444.978L67.49 511.014L256.419 620.092L373.888 554.067L184.942 444.978Z" fill="#3C5185"
            opacity="0.0588"></path>
        <path d="M184.943 444.978L69.8314 509.702L258.76 618.779L373.89 554.067L184.943 444.978Z" fill="#3C5185"
            opacity="0.0784"></path>
        <path d="M184.942 444.978L72.1702 508.389L261.105 617.473L373.888 554.067L184.942 444.978Z" fill="#3C5185"
            opacity="0.098"></path>
        <path d="M184.944 444.978L74.512 507.083L263.441 616.16L373.89 554.067L184.944 444.978Z" fill="#3C5185"
            opacity="0.1176"></path>
        <path d="M184.942 444.978L76.8508 505.764L265.785 614.848L373.889 554.067L184.942 444.978Z" fill="#3C5185"
            opacity="0.1373"></path>
        <path d="M184.944 444.978L79.1982 504.458L268.127 613.535L373.89 554.067L184.944 444.978Z" fill="#3C5185"
            opacity="0.1569"></path>
        <path d="M184.942 444.978L81.5367 503.145L270.465 612.223L373.889 554.067L184.942 444.978Z" fill="#3C5185"
            opacity="0.1765"></path>
        <path d="M184.944 444.978L83.8784 501.833L272.807 610.916L373.89 554.067L184.944 444.978Z" fill="#3C5185"
            opacity="0.1961"></path>
        <path d="M184.943 444.978L86.2173 500.526L275.146 609.603L373.89 554.067L184.943 444.978Z" fill="#3C5185"
            opacity="0.2157"></path>
        <path d="M184.944 444.978L88.5586 499.213L277.487 608.291L373.891 554.067L184.944 444.978Z" fill="#3C5185"
            opacity="0.2353"></path>
        <path d="M184.943 444.978L90.8975 497.901L279.826 606.978L373.89 554.067L184.943 444.978Z" fill="#3C5185"
            opacity="0.2549"></path>
        <path d="M184.942 444.978L93.236 496.588L282.171 605.666L373.888 554.067L184.942 444.978Z" fill="#3C5185"
            opacity="0.2745"></path>
        <path d="M184.943 444.978L95.5776 495.276L284.506 604.359L373.89 554.067L184.943 444.978Z" fill="#3C5185"
            opacity="0.2941"></path>
        <path d="M184.942 444.978L97.9162 493.969L286.851 603.047L373.888 554.067L184.942 444.978Z" fill="#3C5185"
            opacity="0.3137"></path>
        <path d="M184.943 444.978L100.264 492.657L289.187 601.734L373.89 554.067L184.943 444.978Z" fill="#3C5185"
            opacity="0.3333"></path>
        <path d="M184.942 444.978L102.596 491.344L291.531 600.422L373.889 554.067L184.942 444.978Z" fill="#3C5185"
            opacity="0.3529"></path>
        <path d="M184.944 444.978L104.944 490.032L293.867 599.115L373.89 554.067L184.944 444.978Z" fill="#3C5185"
            opacity="0.3725"></path>
        <path d="M184.942 444.978L107.283 488.719L296.211 597.802L373.889 554.067L184.942 444.978Z" fill="#3C5185"
            opacity="0.3922"></path>
        <path d="M184.944 444.978L109.624 487.412L298.553 596.49L373.89 554.067L184.944 444.978Z" fill="#3C5185"
            opacity="0.4118"></path>
        <path d="M184.943 444.978L111.963 486.1L300.892 595.177L373.889 554.067L184.943 444.978Z" fill="#3C5185"
            opacity="0.4314"></path>
        <path d="M184.944 444.978L114.305 484.787L303.239 593.865L373.891 554.067L184.944 444.978Z" fill="#3C5185"
            opacity="0.451"></path>
        <path d="M184.943 444.978L116.649 483.475L305.572 592.558L373.889 554.067L184.943 444.978Z" fill="#3C5185"
            opacity="0.4706"></path>
        <path d="M184.942 444.978L118.982 482.168L307.917 591.246L373.888 554.067L184.942 444.978Z" fill="#3C5185"
            opacity="0.4902"></path>
        <path d="M184.943 444.978L121.329 480.856L310.252 589.933L373.89 554.067L184.943 444.978Z" fill="#3C5185"
            opacity="0.5098"></path>
        <path d="M184.942 444.978L123.662 479.543L312.597 588.627L373.888 554.067L184.942 444.978Z" fill="#3C5185"
            opacity="0.5294"></path>
        <path d="M184.943 444.978L126.009 478.231L314.932 587.308L373.89 554.067L184.943 444.978Z" fill="#3C5185"
            opacity="0.549"></path>
        <path d="M184.942 444.978L128.342 476.918L317.277 586.001L373.888 554.067L184.942 444.978Z" fill="#3C5185"
            opacity="0.5686"></path>
        <path d="M184.943 444.978L130.69 475.611L319.613 584.689L373.89 554.067L184.943 444.978Z" fill="#3C5185"
            opacity="0.5882"></path>
        <path d="M184.943 444.978L133.023 474.299L321.958 583.376L373.889 554.067L184.943 444.978Z" fill="#3C5185"
            opacity="0.6078"></path>
        <path d="M184.944 444.978L135.37 472.986L324.305 582.07L373.89 554.067L184.944 444.978Z" fill="#3C5185"
            opacity="0.6275"></path>
        <path d="M184.942 444.978L137.715 471.68L326.637 580.757L373.889 554.067L184.942 444.978Z" fill="#3C5185"
            opacity="0.6471"></path>
        <path d="M184.944 444.978L140.05 470.361L328.985 579.445L373.89 554.067L184.944 444.978Z" fill="#3C5185"
            opacity="0.6667"></path>
        <path d="M184.943 444.978L142.395 469.055L331.318 578.132L373.889 554.067L184.943 444.978Z" fill="#3C5185"
            opacity="0.6863"></path>
        <path d="M184.941 444.978L144.728 467.742L333.662 576.82L373.888 554.067L184.941 444.978Z" fill="#3C5185"
            opacity="0.7059"></path>
        <path d="M184.943 444.978L147.075 466.43L335.998 575.513L373.89 554.067L184.943 444.978Z" fill="#3C5185"
            opacity="0.7255"></path>
        <path d="M184.942 444.978L149.408 465.123L338.343 574.2L373.888 554.067L184.942 444.978Z" fill="#3C5185"
            opacity="0.7451"></path>
        <path d="M184.943 444.978L151.755 463.81L340.684 572.888L373.89 554.067L184.943 444.978Z" fill="#3C5185"
            opacity="0.7647"></path>
        <path d="M184.942 444.978L154.088 462.498L343.023 571.575L373.888 554.067L184.942 444.978Z" fill="#3C5185"
            opacity="0.7843"></path>
        <path d="M184.943 444.978L156.436 461.185L345.364 570.263L373.89 554.067L184.943 444.978Z" fill="#3C5185"
            opacity="0.8039"></path>
        <path d="M184.942 444.978L158.775 459.873L347.703 568.956L373.889 554.067L184.942 444.978Z" fill="#3C5185"
            opacity="0.8235"></path>
        <path d="M184.943 444.978L161.116 458.566L350.044 567.644L373.89 554.067L184.943 444.978Z" fill="#3C5185"
            opacity="0.8431"></path>
        <path d="M184.943 444.978L163.455 457.254L352.384 566.331L373.889 554.067L184.943 444.978Z" fill="#3C5185"
            opacity="0.8627"></path>
        <path d="M184.944 444.978L165.796 455.941L354.731 565.019L373.89 554.067L184.944 444.978Z" fill="#3C5185"
            opacity="0.8824"></path>
        <path d="M184.943 444.978L168.141 454.635L357.064 563.712L373.889 554.067L184.943 444.978Z" fill="#3C5185"
            opacity="0.902"></path>
        <path d="M184.944 444.978L170.477 453.322L359.411 562.399L373.891 554.067L184.944 444.978Z" fill="#3C5185"
            opacity="0.9216"></path>
        <path d="M184.943 444.978L172.821 452.009L361.75 561.087L373.89 554.067L184.943 444.978Z" fill="#3C5185"
            opacity="0.9412"></path>
        <path d="M184.941 444.978L175.16 450.697L364.089 559.774L373.888 554.067L184.941 444.978Z" fill="#3C5185"
            opacity="0.9608"></path>
        <path d="M184.943 444.978L177.501 449.384L366.43 558.462L373.89 554.067L184.943 444.978Z" fill="#3C5185"
            opacity="0.9804"></path>
        <path d="M184.942 444.978L179.84 448.078L368.769 557.155L373.888 554.067L184.942 444.978Z" fill="#3C5185"
            opacity="0.2"></path>
    </g>
    <path
        d="M185.293 6.98021L183.22 17.2489C180.702 18.9891 180.5 30.2318 180.5 33.2964L183.767 422.8C183.767 441.58 193.614 455.299 209.875 464.689L349.135 546.833C351.44 548.157 354.243 554.239 356.749 553.36L369.987 556.104C383.867 551.234 393.156 538.132 393.156 523.427L393.15 135.764C393.15 116.984 379.846 93.9346 363.579 84.5449L231.517 8.39371C215.09 -1.08509 200.895 -3.82895 185.293 6.98021Z"
        fill="url(#paint0_linear_61_852)"></path>
    <path
        d="M206.503 8.80339C190.241 -0.586324 176.932 7.09293 176.932 25.8783V420.87C176.932 439.65 190.235 462.693 206.503 472.089L349.783 554.809C366.045 564.204 379.354 556.519 379.354 537.74V142.736C379.354 123.957 366.045 100.913 349.783 91.5173L206.503 8.80339Z"
        fill="white"></path>
    <path
        d="M300.559 86.9322C299.977 86.9322 299.395 86.7897 298.855 86.4749L254.009 60.5804C252.375 59.6361 251.811 57.5515 252.755 55.9123C253.7 54.2731 255.79 53.7148 257.418 54.6651L302.27 80.5596C303.903 81.5039 304.461 83.5944 303.523 85.2277C302.887 86.3205 301.741 86.9322 300.559 86.9322Z"
        fill="#A5CBEF"></path>
    <path
        d="M201.05 18.4842L235.722 38.5049C236.934 39.2058 237.688 40.5064 237.688 41.9081V48.2866C237.688 55.4848 241.525 62.1366 247.755 65.7357L307.158 100.028C311.761 102.683 317.516 99.3629 317.516 94.0474V89.3615C317.516 87.746 319.268 86.7364 320.663 87.5382L345.922 102.125C361.275 110.992 370.736 127.372 370.736 145.1V536.956C370.736 545.865 361.097 551.435 353.376 546.981L209.489 463.822C193.881 454.8 184.254 438.147 184.23 420.116L183.684 28.5272C183.672 19.6067 193.323 14.024 201.05 18.4842Z"
        fill="#A5CBEF"></path>
    <path
        d="M275.93 425.912L379.188 485.529V314.275L286.353 260.681C286.353 260.681 286.347 260.681 286.342 260.675C285.427 260.146 284.488 259.724 283.544 259.362C283.253 259.249 282.956 259.166 282.665 259.071C281.994 258.851 281.317 258.661 280.646 258.519C280.319 258.453 280.005 258.394 279.684 258.341C278.977 258.228 278.276 258.168 277.575 258.139C277.32 258.127 277.065 258.103 276.809 258.103C275.847 258.103 274.891 258.162 273.953 258.305C273.929 258.305 273.911 258.311 273.887 258.317C272.973 258.459 272.07 258.685 271.191 258.958C270.971 259.03 270.763 259.107 270.543 259.19C269.849 259.433 269.172 259.707 268.506 260.027C268.293 260.128 268.079 260.235 267.871 260.342C267.152 260.722 266.463 261.144 265.786 261.607C265.679 261.678 265.572 261.738 265.471 261.815C260.809 265.206 257.62 270.664 257.608 277.245L257.424 393.782C257.394 407.032 264.45 419.284 275.93 425.912Z"
        fill="#3C5185" opacity="0.3"></path>
    <path
        d="M296.944 253.619L471.648 354.483C483.081 361.081 490.136 373.28 490.16 386.483L490.368 503.311C490.398 518.081 474.404 527.329 461.617 519.946L286.521 418.851C275.04 412.223 267.985 399.976 268.002 386.72L268.192 270.183C268.216 255.442 284.181 246.249 296.944 253.619Z"
        fill="#EDF5FC"></path>
    <path
        d="M490.159 386.483C490.135 373.28 483.08 361.087 471.647 354.483L296.942 253.619C288.901 248.975 279.588 250.917 273.798 256.672C278.395 255.46 283.508 255.918 288.188 258.626L462.893 359.49C474.331 366.094 481.381 378.287 481.405 391.49L481.613 508.318C481.625 513.794 479.427 518.503 476.018 521.9C483.97 519.804 490.391 512.677 490.373 503.317L490.159 386.483Z"
        fill="url(#paint1_linear_61_852)"></path>
    <path
        d="M295.395 302.902L315.856 314.436C319.033 316.218 320.999 319.579 320.999 323.22V339.582C320.999 344.405 315.767 347.41 311.603 344.981L291.09 333.114C287.989 331.309 286.083 327.989 286.083 324.402V308.336C286.089 303.573 291.232 300.562 295.395 302.902Z"
        fill="url(#paint2_linear_61_852)"></path>
    <path
        d="M321.009 326.778L311.322 321.189C310.633 315.921 306.992 310.077 302.573 307.529C300.103 306.098 297.739 305.896 295.922 306.941C294.164 307.951 293.196 310.012 293.13 312.726L286.086 308.657V309.994L293.16 314.08C293.296 315.654 293.712 317.34 294.395 319.045C293.546 320.227 293.1 321.818 293.1 323.683C293.1 324.824 293.296 326.012 293.593 327.205L286.08 322.87V324.206L294.045 328.803L294.057 328.785C295.518 333.002 298.505 337.076 301.991 339.078C303.423 339.909 304.824 340.325 306.095 340.325C307.016 340.325 307.877 340.105 308.637 339.666C309.825 338.977 310.627 337.783 311.066 336.262L320.527 341.72C320.64 341.477 320.723 341.222 320.813 340.966C320.836 340.841 320.842 340.711 320.866 340.58L311.328 335.069C311.393 334.594 311.458 334.124 311.458 333.602C311.458 331.743 311.013 329.652 310.158 327.544C311.013 326.362 311.458 324.77 311.458 322.905C311.458 322.798 311.435 322.68 311.429 322.573L320.997 328.096V326.778H321.009ZM309.059 327.098L308.839 327.372L308.97 327.692C309.843 329.765 310.312 331.808 310.312 333.608C310.312 336.037 309.516 337.83 308.073 338.662C306.636 339.493 304.676 339.285 302.573 338.074C297.994 335.431 294.264 328.969 294.264 323.677C294.264 321.937 294.698 320.488 295.518 319.496L295.737 319.229L295.607 318.902C294.734 316.83 294.264 314.781 294.264 312.981C294.264 310.552 295.06 308.764 296.504 307.927C297.086 307.594 297.745 307.428 298.469 307.428C299.544 307.428 300.744 307.796 302.003 308.521C306.582 311.17 310.312 317.625 310.312 322.917C310.312 324.663 309.878 326.107 309.059 327.098Z"
        fill="#3C5185"></path>
    <path d="M280.124 338.59L319.88 361.283V377.532L280.142 354.845L280.124 338.59Z" fill="#B7D5F2"></path>
    <path d="M328.866 365.453L368.622 388.152V404.401L328.884 381.708L328.866 365.453Z" fill="#B7D5F2"></path>
    <path d="M377.608 393.384L417.365 416.078V432.327L377.626 409.64L377.608 393.384Z" fill="#B7D5F2"></path>
    <path d="M390.217 339.166L447.761 371.891V388.14L390.229 355.422L390.217 339.166Z" fill="#B7D5F2"></path>
    <path d="M358.685 408.392L378.557 419.742V427.867L358.691 416.523L358.685 408.392Z" fill="#B7D5F2"></path>
    <path d="M286.092 367.798L305.97 379.148V387.267L286.098 375.929L286.092 367.798Z" fill="#B7D5F2"></path>
    <path d="M426.35 421.583L466.107 444.276V460.526L426.368 437.832L426.35 421.583Z" fill="#B7D5F2"></path>
    <path
        d="M417.366 460.906V475.736C417.366 477.209 418.15 478.569 419.427 479.305L432.267 486.717C434.542 488.03 437.381 486.39 437.381 483.759V468.935C437.381 467.463 436.591 466.102 435.32 465.366L422.479 457.954C420.211 456.636 417.366 458.275 417.366 460.906Z"
        fill="url(#paint3_linear_61_852)"></path>
    <path
        d="M429.861 468.164V482.994C429.861 484.467 430.644 485.827 431.921 486.563L444.762 493.975C447.036 495.288 449.875 493.648 449.875 491.017V476.193C449.875 474.721 449.091 473.36 447.814 472.624L434.974 465.212C432.699 463.9 429.861 465.539 429.861 468.164Z"
        fill="#3C5185"></path>
    <path
        d="M264.344 108.295L176.932 57.854V117.215L261.493 166.367C262.283 166.837 263.114 167.021 263.928 166.997C264.462 166.985 264.967 166.854 265.454 166.658C265.549 166.623 265.632 166.587 265.727 166.545C266.202 166.326 266.648 166.047 267.028 165.678C267.034 165.672 267.034 165.666 267.04 165.666C267.396 165.31 267.669 164.883 267.901 164.419C267.96 164.3 268.008 164.188 268.049 164.063C268.24 163.564 268.382 163.03 268.382 162.442V115.291C268.382 112.405 266.844 109.738 264.344 108.295Z"
        fill="#3C5185" opacity="0.3"></path>
    <path
        d="M264.344 183.151L176.932 132.711V192.066L261.493 241.218C262.794 241.984 264.225 241.99 265.454 241.515C265.549 241.479 265.632 241.444 265.727 241.402C266.202 241.176 266.648 240.903 267.028 240.535C267.034 240.535 267.034 240.529 267.04 240.523C267.396 240.167 267.669 239.745 267.901 239.282C267.96 239.163 268.008 239.044 268.049 238.925C268.24 238.427 268.382 237.892 268.382 237.304V190.148C268.382 187.261 266.844 184.595 264.344 183.151Z"
        fill="#3C5185" opacity="0.3"></path>
    <path
        d="M89.5739 6.84404V53.3234C89.5739 56.2039 91.1121 58.8706 93.6125 60.3138L255.524 154.419C258.565 156.218 262.408 154.027 262.408 150.493V103.343C262.408 100.456 260.864 97.7895 258.369 96.3463L96.4098 2.89453C93.3749 1.14249 89.5739 3.33403 89.5739 6.84404Z"
        fill="url(#paint4_linear_61_852)"></path>
    <path
        d="M258.998 152.198V105.047C258.998 102.161 257.46 99.4942 254.96 98.051L93.0062 4.59927C92.2341 4.15384 91.4086 3.96972 90.6187 3.98754C91.9609 2.36022 94.3425 1.70693 96.4093 2.90069L258.369 96.3524C260.863 97.7956 262.407 100.462 262.407 103.349V150.499C262.407 153.118 260.293 154.989 257.959 155.055C258.583 154.282 258.998 153.32 258.998 152.198Z"
        fill="url(#paint5_linear_61_852)"></path>
    <path
        d="M117.12 27.2571C107.932 21.9476 100.413 26.289 100.413 36.9082C100.413 47.5213 107.938 60.5398 117.12 65.8494C126.314 71.159 133.827 66.8115 133.827 56.1984C133.827 45.5852 126.314 32.5607 117.12 27.2571Z"
        fill="url(#paint6_linear_61_852)"></path>
    <path d="M139.563 42.0874L250.179 106.01V114.604L139.563 50.0458V42.0874Z" fill="white"></path>
    <path d="M139.563 62.5054L210.043 103.194V111.782L139.563 70.4578V62.5054Z" fill="white"></path>
    <path
        d="M89.5739 81.7006V128.174C89.5739 131.06 91.1121 133.721 93.6125 135.164L255.524 229.275C258.565 231.075 262.408 228.883 262.408 225.35V178.199C262.408 175.313 260.864 172.646 258.369 171.203L96.4098 77.7511C93.3749 75.9931 89.5739 78.1846 89.5739 81.7006Z"
        fill="#EDF5FC"></path>
    <path
        d="M258.998 227.048V179.898C258.998 177.011 257.46 174.345 254.96 172.901L93.0062 79.4496C92.2341 79.0042 91.4086 78.8201 90.6187 78.8379C91.9609 77.2106 94.3425 76.5573 96.4093 77.7451L258.369 171.197C260.863 172.64 262.407 175.307 262.407 178.193V225.344C262.407 227.963 260.293 229.834 257.959 229.899C258.583 229.139 258.998 228.177 258.998 227.048Z"
        fill="url(#paint7_linear_61_852)"></path>
    <path
        d="M117.12 102.107C107.932 96.7977 100.413 101.139 100.413 111.758C100.413 122.371 107.938 135.39 117.12 140.699C126.314 146.009 133.827 141.668 133.827 131.048C133.827 120.441 126.314 107.417 117.12 102.107Z"
        fill="url(#paint8_linear_61_852)"></path>
    <path d="M139.563 116.943L250.179 180.865V189.459L139.563 124.895V116.943Z" fill="#B7D5F2"></path>
    <path d="M139.563 137.356L210.043 178.045V186.639L139.563 145.315V137.356Z" fill="#B7D5F2"></path>
    <path
        d="M176.932 223.995V394.334C200.32 382.688 215.714 358.682 215.714 331.772V274.845C215.714 264.238 211.153 254.148 203.2 247.134L176.932 223.995Z"
        fill="#3C5185" opacity="0.3"></path>
    <path
        d="M191.25 237.174L148.685 199.68L103.969 187.44C102.205 186.959 100.453 187.095 98.903 187.689L87.4404 192.126L93.5994 195.891V245.144C93.5994 287.953 106.469 329.776 130.541 365.185L147.752 390.509L152.016 389.357C182.555 381.126 203.764 353.432 203.764 321.806V264.885C203.77 254.278 199.208 244.188 191.25 237.174Z"
        fill="url(#paint9_linear_61_852)"></path>
    <path
        d="M81.5309 199.995V249.795C81.5309 292.604 94.401 334.427 118.466 369.836L135.678 395.16L139.948 394.008C170.481 385.776 191.689 358.082 191.689 326.457V269.53C191.689 258.923 187.128 248.833 179.176 241.819L136.61 204.325L91.9005 192.084C86.6741 190.659 81.5309 194.585 81.5309 199.995Z"
        fill="url(#paint10_linear_61_852)"></path>
    <path
        d="M136.605 252.793C116.881 241.408 100.739 250.72 100.739 273.503C100.739 296.279 116.881 324.235 136.605 335.626C156.335 347.011 172.477 337.699 172.477 314.916C172.477 292.14 156.335 264.184 136.605 252.793Z"
        fill="white"></path>
    <path
        d="M151.411 289.545L146.933 287.021V279.169C146.933 267.79 144.42 260.574 139.473 257.717C136.901 256.232 134.092 256.155 131.758 257.503C129.857 258.602 126.668 261.649 126.668 269.702V276.93C123.283 276.716 119.868 277.993 117.48 280.66C116.91 281.295 116.601 282.121 116.601 282.976V284.229V310.112V310.201C116.601 313.141 118.692 316.728 121.246 318.171L144.503 331.291C145.115 331.635 145.792 331.831 146.481 331.879L147.354 331.932C152.07 332.229 156.061 328.481 156.061 323.754V297.515C156.061 294.581 153.97 290.994 151.411 289.545ZM130.944 269.696C130.944 265.444 132.049 262.266 133.896 261.197C135.167 260.461 136.468 260.906 137.335 261.411C140.774 263.395 142.662 269.702 142.662 279.163V284.603L131.55 278.332C131.354 278.219 131.146 278.154 130.938 278.059V269.696H130.944Z"
        fill="#A5CBEF" opacity="0.3"></path>
    <path
        d="M144.196 293.155L139.717 290.631V282.78C139.717 271.4 137.205 264.184 132.252 261.328C129.68 259.843 126.877 259.766 124.537 261.114C122.637 262.212 119.453 265.253 119.453 273.313V280.546C116.062 280.333 112.647 281.61 110.266 284.276C109.689 284.912 109.38 285.737 109.38 286.592V287.846V313.728V313.817C109.38 316.757 111.477 320.344 114.031 321.788L137.283 334.907C137.894 335.251 138.571 335.453 139.266 335.495L140.133 335.548C144.855 335.845 148.84 332.098 148.84 327.37V301.131C148.846 298.191 146.755 294.598 144.196 293.155ZM123.723 273.307C123.723 269.054 124.834 265.877 126.675 264.808C127.946 264.077 129.253 264.523 130.12 265.022C133.553 267.005 135.441 273.313 135.441 282.774V288.214L124.329 281.942C124.133 281.829 123.925 281.764 123.717 281.663V273.307H123.723Z"
        fill="#A5CBEF" opacity="0.3"></path>
    <path
        d="M101.837 287.876C105.407 283.897 111.257 282.935 115.907 285.56L135.773 296.767C138.333 298.216 140.418 301.803 140.418 304.737V330.976C140.418 335.704 136.427 339.451 131.711 339.154L130.844 339.101C130.149 339.059 129.472 338.857 128.866 338.513L105.609 325.394C103.049 323.944 100.958 320.357 100.958 317.423V290.198C100.958 289.337 101.273 288.512 101.837 287.876Z"
        fill="url(#paint11_linear_61_852)"></path>
    <path
        d="M100.958 291.446C100.958 288.506 103.055 287.288 105.609 288.731L128.29 301.572C130.85 303.021 132.941 306.608 132.941 309.542V335.425C132.941 338.364 130.844 339.582 128.29 338.139L105.609 325.298C103.049 323.849 100.958 320.262 100.958 317.328V291.446Z"
        fill="url(#paint12_linear_61_852)"></path>
    <path
        d="M116.947 303.817C114.28 302.279 112.094 303.496 112.094 306.537C112.094 309.572 114.28 313.415 116.947 315.078C119.619 316.735 121.799 315.511 121.799 312.358C121.799 309.204 119.625 305.361 116.947 303.817Z"
        fill="#3C5185"></path>
    <path
        d="M131.296 298.157V286.385C131.296 275.006 128.784 267.79 123.831 264.933C121.259 263.448 118.456 263.371 116.116 264.719C114.215 265.818 111.032 268.859 111.032 276.918V288.464H111.091C111.109 288.755 111.305 289.052 111.691 289.272C112.505 289.741 113.829 289.741 114.643 289.272C115.029 289.046 115.231 288.755 115.248 288.464H115.308V276.918C115.308 272.666 116.419 269.489 118.26 268.419C119.531 267.689 120.837 268.134 121.704 268.633C125.137 270.617 127.026 276.918 127.026 286.385V298.133C127.008 298.465 127.21 298.792 127.643 299.041C128.475 299.523 129.841 299.523 130.672 299.041C131.094 298.798 131.296 298.477 131.296 298.157Z"
        fill="#3C5185"></path>
    <path d="M114.025 306.816V320.339L119.881 323.719V310.195L114.025 306.816Z" fill="#3C5185"></path>
    <path
        d="M392.152 210.982C392.152 185.741 374.269 154.768 352.413 142.154C344.681 137.693 337.471 136.149 331.347 137.076L331.306 137.034L331.003 137.117C329.471 137.373 328.015 137.777 326.644 138.347L316.82 141.114L316.862 141.138C307.555 144.179 301.521 153.753 301.521 168.381C301.521 193.622 319.404 224.594 341.26 237.215C350.519 242.56 359.041 243.748 365.818 241.467L365.812 241.509L374.43 238.884C375.724 238.629 376.954 238.237 378.136 237.755L378.367 237.684L378.379 237.637C386.789 234.073 392.152 224.779 392.152 210.982Z"
        fill="#3C5185" opacity="0.3"></path>
    <path
        d="M402.114 201.023C402.114 175.782 384.231 144.809 362.375 132.195C354.642 127.728 347.432 126.19 341.309 127.117L341.267 127.075L340.965 127.158C339.432 127.414 337.977 127.817 336.605 128.388L326.782 131.155L329.852 133.079C325.321 137.914 322.642 145.403 322.642 155.143C322.642 180.384 340.525 211.351 362.375 223.971C367.233 226.775 371.878 228.384 376.183 229.014L375.774 231.562L384.391 228.937C385.692 228.681 386.921 228.289 388.097 227.808L388.329 227.737L388.341 227.695C396.751 224.114 402.114 214.819 402.114 201.023Z"
        fill="url(#paint13_linear_61_852)"></path>
    <path
        d="M351.222 135.479C329.36 122.858 311.483 133.186 311.483 158.422C311.483 183.657 329.366 214.635 351.222 227.256C373.077 239.876 390.954 229.548 390.954 204.313C390.954 179.078 373.071 148.099 351.222 135.479Z"
        fill="url(#paint14_linear_61_852)"></path>
    <path
        d="M345.384 203.155L331.225 185.973C329.283 183.621 329.616 180.129 331.973 178.187C334.331 176.25 337.812 176.571 339.766 178.935L347.035 187.754L364.876 173.679C367.27 171.796 370.75 172.194 372.65 174.599C374.539 176.999 374.135 180.479 371.736 182.368L345.384 203.155Z"
        fill="white"></path>
    <path
        d="M143.71 613.279L141.458 621.077C141.458 622.995 142.48 624.771 144.137 625.733L145.188 626.488C149.744 629.136 155.344 629.22 159.977 626.713L173.672 619.289C175.282 618.416 175.306 616.112 173.726 615.203C171.125 613.713 168.024 611.456 165.221 611.818C163.903 611.99 162.602 612.234 161.277 612.228L154.934 613.095L143.71 613.279Z"
        fill="#4A65A3"></path>
    <path
        d="M149.939 621.012C154.103 621.012 157.571 617.722 157.755 613.517L159.994 561.959L163.694 508.008C163.516 503.685 153.948 499.902 149.607 500.133C145.283 500.311 142.955 508.204 143.127 512.528L144.315 561.947L143.709 612.436C143.525 616.759 145.265 620.816 149.583 621.006C149.708 621.006 149.827 621.012 149.939 621.012Z"
        fill="url(#paint15_linear_61_852)"></path>
    <path
        d="M154.133 518.705C154.828 518.622 155.517 518.379 156.146 517.963C158.249 516.561 158.807 513.722 157.4 511.626L143.306 490.578C138.323 483.142 138.869 473.158 144.636 466.31L157.809 450.655C159.431 448.725 159.181 445.844 157.251 444.223C155.321 442.602 152.44 442.845 150.819 444.775L137.64 460.431C129.272 470.373 128.476 484.864 135.716 495.667L149.809 516.716C150.795 518.177 152.488 518.889 154.133 518.705Z"
        fill="#F2B1B5"></path>
    <path
        d="M141.732 468.549C143.015 468.401 144.238 467.789 145.129 466.72L158.302 451.065C160.161 448.855 159.876 445.565 157.673 443.706C155.463 441.847 152.173 442.132 150.314 444.342L137.141 460.003C135.282 462.206 135.568 465.503 137.771 467.356C138.923 468.324 140.36 468.71 141.732 468.549Z"
        fill="url(#paint16_linear_61_852)"></path>
    <path
        d="M165.946 625.686L163.695 633.484C163.695 635.403 164.716 637.179 166.373 638.147L167.425 638.901C171.98 641.55 177.581 641.633 182.207 639.126L195.903 631.703C197.512 630.83 197.542 628.525 195.956 627.617C193.355 626.12 190.261 623.863 187.451 624.231C186.133 624.404 184.838 624.641 183.508 624.641L177.165 625.508L165.946 625.686Z"
        fill="#4A65A3"></path>
    <path
        d="M178.104 515.272V484.246C178.104 481.282 184.274 483.326 181.703 481.841L154.709 466.257C149.566 463.287 146.288 491.153 146.288 497.098L143.128 520.558C143.128 523.527 144.714 526.259 147.279 527.744L160.518 535.174L166.558 574.342L165.952 624.831C165.762 629.154 167.502 633.211 171.82 633.401C171.939 633.407 172.052 633.407 172.17 633.407C176.34 633.407 179.808 630.122 179.986 625.911L182.231 574.354L179.986 520.023C179.921 518.212 179.202 516.567 178.104 515.272Z"
        fill="url(#paint17_linear_61_852)"></path>
    <path
        d="M143.721 455.519L145.182 478.236C144.695 483.071 144.856 487.911 144.368 492.745C144.083 495.543 142.539 513.396 143.109 516.11C143.472 517.85 157.898 523.189 158.48 523.445C166.593 527.079 174.801 528.356 181.351 525.191L181.708 501.702L183.056 484.383C183.893 472.517 186.174 456.671 174.509 449.408C174.017 449.099 173.512 448.802 172.995 448.529L160.576 441.746C157.642 440.054 154.025 440.054 151.098 441.746C146.216 444.562 143.365 449.901 143.721 455.519Z"
        fill="url(#paint18_linear_61_852)"></path>
    <path
        d="M162.697 449.461C160.369 449.461 158.486 447.573 158.486 445.25V428.68C158.486 426.352 160.369 424.464 162.697 424.464C165.031 424.464 166.914 426.352 166.914 428.68V445.25C166.914 447.573 165.025 449.461 162.697 449.461Z"
        fill="#F2B1B5"></path>
    <path
        d="M159.045 443.433L157.946 415.383L178.71 414.575L178.995 421.851C179.446 433.319 170.514 442.982 159.045 443.433Z"
        fill="#F2B1B5"></path>
    <path
        d="M173.203 420.609C172.193 421.47 171.843 422.581 173.042 424.149C173.518 424.772 174.533 426.311 173.981 427.13C173.357 428.057 172.342 427.225 171.528 427.207C169.722 427.172 170.56 429.155 170.53 430.32C170.405 434.976 166.705 441.152 161.663 441.616C158.575 441.901 156.348 438.711 155.38 435.772C153.925 431.353 153.699 426.637 153.485 421.993C153.354 419.077 153.247 416 154.596 413.411C155.926 410.857 158.509 409.141 161.247 408.25C163.985 407.359 166.895 407.187 169.776 407.026C172.621 406.866 175.668 406.385 178.495 406.991C180.353 407.389 183.044 408.873 183.281 410.946C183.638 414.017 181.482 416.244 179.059 417.746C177.645 418.614 174.699 419.332 173.203 420.609Z"
        fill="#3C5185"></path>
    <path
        d="M179.482 524.602C178.781 524.519 178.092 524.276 177.463 523.86C175.366 522.458 174.808 519.619 176.21 517.523L186.65 502.028C191.633 494.592 191.081 484.608 185.32 477.761L172.141 462.105C170.52 460.175 170.769 457.295 172.7 455.667C174.63 454.046 177.516 454.295 179.138 456.226L192.31 471.881C200.679 481.823 201.475 496.314 194.241 507.118L183.8 522.613C182.814 524.08 181.127 524.792 179.482 524.602Z"
        fill="#F2B1B5"></path>
    <path
        d="M188.21 480.006C186.933 479.857 185.704 479.246 184.813 478.176L171.64 462.521C169.781 460.312 170.066 457.021 172.27 455.163C174.479 453.304 177.775 453.589 179.628 455.798L192.801 471.453C194.66 473.663 194.375 476.953 192.172 478.812C191.031 479.78 189.594 480.166 188.21 480.006Z"
        fill="url(#paint19_linear_61_852)"></path>
    <path
        d="M185.563 522.72C185.563 525.624 185.129 529.984 182.225 529.984C179.321 529.984 175.051 523.647 175.051 520.742C175.051 517.838 177.403 517.464 180.307 517.464C183.211 517.47 185.563 519.822 185.563 522.72Z"
        fill="#F2B1B5"></path>
    <path
        d="M554.693 356.301C554.693 362.667 550.209 365.227 544.727 361.978L428.499 293.126C423.018 289.884 418.474 282.014 418.409 275.642L417.364 179.826C417.292 173.459 421.729 170.882 427.222 174.113L544.71 243.09C550.203 246.314 554.699 254.166 554.699 260.539V356.301H554.693Z"
        fill="white"></path>
    <path
        d="M544.709 243.089L427.227 174.107C422.862 171.541 419.198 172.687 417.903 176.453C418.711 176.678 419.542 176.993 420.421 177.51L537.902 246.492C543.402 249.717 547.898 257.569 547.898 263.941V359.709C547.898 361.01 547.666 362.103 547.322 363.065C551.55 364.229 554.698 361.628 554.698 356.3V260.538C554.692 254.172 550.202 246.314 544.709 243.089Z"
        fill="url(#paint20_linear_61_852)"></path>
    <path
        d="M508.997 272.363L480.436 279.098C478.185 279.626 475.845 278.646 474.639 276.669L453.128 241.171C453.122 241.218 453.098 241.248 453.098 241.295L453.068 278.593C453.068 280.131 454.167 282.014 455.497 282.78L506.704 311.953C508.04 312.713 509.133 312.077 509.133 310.539V273.26C509.145 272.969 509.074 272.666 508.997 272.363Z"
        fill="#3C5185"></path>
    <path
        d="M482.389 272.446L509.144 266.091C509.138 266.061 509.138 266.037 509.133 266.008C508.984 265.426 508.711 264.844 508.36 264.315C508.301 264.22 508.236 264.143 508.17 264.054C507.79 263.543 507.345 263.08 506.858 262.801L457.486 233.23C457.159 233.046 456.851 232.945 456.566 232.921C456.429 232.909 456.316 232.963 456.191 232.986C456.061 233.01 455.918 233.004 455.811 233.064C455.675 233.141 455.574 233.283 455.467 233.414C455.407 233.485 455.336 233.533 455.289 233.616C455.205 233.776 455.176 233.996 455.14 234.21C455.122 234.311 455.087 234.4 455.081 234.513L476.598 270.011C477.792 272 480.132 272.98 482.389 272.446Z"
        fill="url(#paint21_linear_61_852)"></path>
    <path
        d="M73.0259 182.314C72.9784 162.703 59.1046 138.674 42.196 128.91C34.2257 124.313 26.9681 123.707 21.4863 126.356L21.4329 126.332L21.1121 126.534C20.3281 126.938 19.5799 127.407 18.8791 127.948L8.08765 134.784L13.2726 135.888C12.1145 138.959 11.4492 142.576 11.4492 146.763C11.4492 166.344 25.323 190.379 42.2792 200.167C45.8783 202.252 49.3346 203.481 52.5477 204.01L51.3837 210.044L63.9746 202.293C64.0221 202.264 64.0697 202.234 64.1172 202.204L64.4498 202.002L64.4438 201.979C69.7653 198.641 73.0496 191.864 73.0259 182.314Z"
        fill="#FFC107"></path>
    <path
        d="M33.9354 125.489C31.1203 124.788 28.4715 124.622 26.0484 124.984L13.0774 132.788C12.8161 133.721 12.5964 134.701 12.4182 135.716L13.2735 135.895C12.9706 136.696 12.7033 137.534 12.4717 138.413L33.9354 125.489Z"
        fill="#FFAD33"></path>
    <path
        d="M43.9007 129.997C43.3306 129.629 42.7724 129.243 42.1963 128.91C41.252 128.37 40.3254 127.889 39.3989 127.455L11.99 143.96C12.0731 145.587 12.2394 147.238 12.4948 148.907L43.9007 129.997Z"
        fill="#FFAD33"></path>
    <path
        d="M45.2127 197.833C46.8103 198.712 48.3603 199.413 49.8926 200.001L72.8175 186.192C72.9422 184.951 73.0254 183.668 73.0194 182.314C73.0194 181.833 72.9718 181.334 72.954 180.847L44.981 197.69C45.0642 197.738 45.1414 197.791 45.2127 197.833Z"
        fill="#FFAD33"></path>
    <path
        d="M14.6573 158.124L51.4797 135.953C50.3156 134.849 49.1219 133.821 47.8984 132.853L13.4041 153.622C13.7664 155.119 14.1762 156.621 14.6573 158.124Z"
        fill="#FFAD33"></path>
    <path
        d="M71.6018 192.192L55.7266 201.748L58.0132 205.549L66.4468 200.471C66.4527 200.465 66.4586 200.459 66.4705 200.447L66.4585 200.429C66.4764 200.423 66.5002 200.405 66.524 200.399C68.7452 198.374 70.4793 195.619 71.6018 192.192Z"
        fill="#FFAD33"></path>
    <path
        d="M70.4067 166.612C69.9553 165.163 69.4385 163.714 68.8802 162.276L30.3116 185.504C31.3391 186.668 32.4022 187.779 33.4831 188.848L70.4067 166.612Z"
        fill="#FFAD33"></path>
    <path
        d="M20.0071 170.68C20.7139 172.004 21.4622 173.305 22.2521 174.588L62.8398 150.149C62.0499 148.866 61.2304 147.607 60.3692 146.377L20.0071 170.68Z"
        fill="#FFAD33"></path>
    <path
        d="M71.6488 171.125L36.947 192.019C38.1942 193.076 39.4651 194.068 40.7598 194.983L72.5161 175.859C72.2963 174.291 72.017 172.717 71.6488 171.125Z"
        fill="#FFAD33"></path>
    <path
        d="M16.1949 162.46C16.7472 163.862 17.3471 165.258 17.9885 166.641L57.6678 142.748C56.7116 141.549 55.7316 140.385 54.716 139.274L16.1949 162.46Z"
        fill="#FFAD33"></path>
    <path
        d="M67.104 158.089C66.4744 156.729 65.7974 155.375 65.0847 154.044L24.7107 178.353C25.5719 179.6 26.4686 180.812 27.3892 181.994L67.104 158.089Z"
        fill="#FFAD33"></path>
    <path
        d="M31.3517 135.805C14.4431 126.041 0.604919 134.077 0.604919 153.658C0.604919 173.239 14.4845 197.275 31.4347 207.062C48.3909 216.85 62.235 208.82 62.1875 189.21C62.14 169.605 48.2663 145.569 31.3517 135.805Z"
        fill="#FFCD39"></path>
    <path
        d="M31.3573 140.437C16.6462 131.944 4.60767 138.935 4.60767 155.968C4.60767 173.001 16.6818 193.913 31.4345 202.435C46.1873 210.952 58.2318 203.962 58.1902 186.905C58.1486 169.848 46.0744 148.936 31.3573 140.437Z"
        fill="#FFAD33"></path>
    <path
        d="M31.363 142.641C17.7447 134.748 6.60297 141.245 6.60297 157.073C6.60297 172.901 17.7803 192.327 31.4342 200.244C45.0882 208.161 56.2299 201.664 56.1943 185.812C56.1527 169.955 44.9813 150.528 31.363 142.641Z"
        fill="#FFCD39"></path>
    <path
        d="M30.9134 193.676L30.5748 189.738C26.9163 187.089 23.4181 183.235 20.0922 178.193L23.531 174.219C25.9482 177.854 28.0863 180.491 29.9274 182.136L29.2444 174.095C26.1799 171.523 23.8933 169.046 22.361 166.671C20.8287 164.289 19.9379 161.557 19.6766 158.487C19.4152 155.416 19.9972 153.302 21.4107 152.161C22.8302 151.021 24.8138 150.944 27.3616 151.93L27.136 149.287L31.6498 151.71L31.8814 154.46C34.7619 156.485 37.7076 159.496 40.7306 163.481L37.7848 167.971C35.8606 165.394 34.1086 163.422 32.5288 162.062L33.188 169.83C36.3358 172.485 38.7113 175.045 40.3149 177.521C41.9244 179.998 42.8569 182.778 43.1182 185.872C43.3795 188.966 42.7796 191.08 41.3186 192.221C39.8635 193.355 37.7848 193.391 35.0944 192.328L35.4212 196.099L30.9134 193.676ZM28.0031 159.425C26.8331 159.306 26.3045 159.971 26.4233 161.409C26.5421 162.846 27.2489 164.271 28.5318 165.685L28.0031 159.425ZM36.3535 182.647C36.2882 181.893 36.0744 181.18 35.724 180.509C35.3677 179.838 34.7619 179.066 33.9007 178.193L34.4709 184.827C35.8607 185.023 36.4961 184.298 36.3535 182.647Z"
        fill="#FF9800"></path>
    <path
        d="M406.377 305.509C403.853 304.054 401.875 300.627 401.875 297.717C401.875 296.131 402.463 294.925 403.526 294.307C404.589 293.69 405.932 293.785 407.31 294.575C409.846 296.03 411.824 299.451 411.812 302.373C411.812 303.959 411.218 305.17 410.155 305.788C409.697 306.049 409.181 306.186 408.634 306.186C407.921 306.186 407.155 305.96 406.377 305.509ZM405.468 297.657C405.201 297.812 405.053 298.192 405.053 298.702C405.053 299.991 405.997 301.63 407.114 302.272C407.553 302.521 407.963 302.587 408.23 302.432C408.497 302.278 408.652 301.898 408.652 301.387C408.652 300.092 407.714 298.459 406.591 297.817C406.306 297.657 406.045 297.574 405.819 297.574C405.682 297.574 405.563 297.604 405.468 297.657Z"
        fill="url(#paint22_linear_61_852)"></path>
    <path
        d="M113.835 178.193C111.311 176.738 109.333 173.317 109.333 170.401C109.333 168.815 109.921 167.603 110.985 166.992C112.048 166.38 113.39 166.469 114.768 167.259C117.304 168.714 119.281 172.135 119.269 175.057C119.269 176.648 118.676 177.854 117.613 178.472C117.155 178.733 116.638 178.87 116.092 178.87C115.385 178.87 114.613 178.644 113.835 178.193ZM112.927 170.341C112.659 170.496 112.511 170.876 112.511 171.386C112.511 172.675 113.455 174.314 114.572 174.962C115.011 175.211 115.421 175.271 115.688 175.116C115.955 174.962 116.11 174.582 116.11 174.071C116.11 172.776 115.172 171.143 114.049 170.502C113.764 170.341 113.503 170.258 113.277 170.258C113.14 170.258 113.022 170.288 112.927 170.341Z"
        fill="url(#paint23_linear_61_852)"></path>
    <path
        d="M50.4871 86.8258C47.3631 85.0204 44.9102 80.768 44.9102 77.157C44.9102 75.1911 45.6348 73.6945 46.9533 72.9283C48.2837 72.1681 49.9468 72.281 51.6513 73.2669C54.7932 75.0724 57.246 79.3188 57.24 82.9417C57.2341 84.9135 56.5037 86.416 55.1792 87.1762C54.6031 87.5029 53.9675 87.6692 53.2904 87.6692C52.4054 87.6633 51.4552 87.3841 50.4871 86.8258ZM49.3587 77.0857C49.0261 77.2758 48.8419 77.745 48.8419 78.3804C48.8419 79.984 50.012 82.0092 51.4017 82.811C51.9482 83.1258 52.453 83.197 52.7796 83.007C53.1063 82.8169 53.3023 82.3418 53.3023 81.7123C53.3083 80.1087 52.1383 78.0775 50.7425 77.2817C50.3981 77.0798 50.0714 76.9788 49.7922 76.9788C49.6259 76.9788 49.4775 77.0145 49.3587 77.0857Z"
        fill="url(#paint24_linear_61_852)"></path>
    <path
        d="M329.495 47.55C326.971 46.0949 324.993 42.668 324.993 39.7579C324.993 38.1721 325.581 36.9665 326.644 36.3488C327.713 35.7371 329.049 35.8262 330.427 36.622C332.963 38.0712 334.941 41.498 334.929 44.4201C334.929 46.0058 334.335 47.2173 333.272 47.835C332.815 48.0963 332.298 48.2329 331.752 48.2329C331.039 48.227 330.267 48.0013 329.495 47.55ZM328.58 39.6985C328.313 39.8529 328.164 40.233 328.164 40.7438C328.164 42.0325 329.109 43.6658 330.225 44.3131C330.665 44.5626 331.075 44.6279 331.342 44.4735C331.609 44.3191 331.763 43.939 331.763 43.4282C331.769 42.1394 330.825 40.5002 329.703 39.8588C329.417 39.6985 329.156 39.6153 328.93 39.6153C328.794 39.6153 328.681 39.645 328.58 39.6985Z"
        fill="url(#paint25_linear_61_852)"></path>
    <path
        d="M7.32297 256.826C3.21902 254.457 0 248.886 0 244.14C0 241.563 0.950238 239.591 2.68447 238.587C4.4187 237.589 6.60441 237.738 8.84346 239.027C12.9593 241.391 16.1841 246.967 16.1722 251.719C16.1663 254.302 15.2042 256.274 13.47 257.278C12.7157 257.711 11.8784 257.925 10.9934 257.925C9.83529 257.925 8.58801 257.557 7.32297 256.826ZM5.83819 244.045C5.40463 244.295 5.15524 244.912 5.15524 245.744C5.15524 247.846 6.69943 250.507 8.51087 251.558C9.22951 251.968 9.88281 252.063 10.3282 251.814C10.7559 251.564 11.0112 250.941 11.0112 250.109C11.0171 248.007 9.47888 245.346 7.65556 244.295C7.20419 244.033 6.77658 243.903 6.40241 243.903C6.1886 243.909 5.99854 243.956 5.83819 244.045Z"
        fill="url(#paint26_linear_61_852)"></path>
    <path
        d="M85.7311 359.062C83.7177 357.898 82.1379 355.166 82.1379 352.838C82.1379 351.573 82.6071 350.611 83.4564 350.118C84.3117 349.625 85.3808 349.702 86.4855 350.332C88.5049 351.49 90.0789 354.228 90.0729 356.556C90.0729 357.821 89.6036 358.789 88.7483 359.276C88.3741 359.49 87.9704 359.597 87.5368 359.597C86.9607 359.603 86.3488 359.419 85.7311 359.062ZM85.0007 352.791C84.7928 352.915 84.6681 353.218 84.6681 353.622C84.6681 354.656 85.4224 355.962 86.3133 356.473C86.6637 356.675 86.9844 356.722 87.1982 356.598C87.412 356.473 87.5368 356.17 87.5368 355.766C87.5368 354.733 86.7825 353.426 85.8915 352.915C85.6718 352.791 85.458 352.719 85.2738 352.719C85.1729 352.725 85.0779 352.749 85.0007 352.791Z"
        fill="url(#paint27_linear_61_852)"></path>
    <path
        d="M415.495 140.533C412.662 138.9 410.441 135.058 410.441 131.785C410.441 130.009 411.094 128.649 412.294 127.954C413.488 127.266 415.002 127.366 416.546 128.257C419.391 129.885 421.606 133.733 421.6 137.012C421.594 138.793 420.935 140.153 419.741 140.842C419.225 141.139 418.643 141.288 418.037 141.288C417.229 141.294 416.362 141.038 415.495 140.533ZM414.467 131.72C414.17 131.892 413.998 132.32 413.998 132.89C413.998 134.339 415.061 136.174 416.315 136.899C416.813 137.184 417.265 137.249 417.568 137.077C417.871 136.905 418.037 136.477 418.043 135.907C418.043 134.452 416.98 132.623 415.727 131.898C415.412 131.714 415.109 131.625 414.859 131.625C414.711 131.625 414.58 131.66 414.467 131.72Z"
        fill="url(#paint28_linear_61_852)"></path>
    <path
        d="M527.209 410.067C522.642 407.436 519.067 401.242 519.067 395.974C519.067 393.111 520.13 390.92 522.054 389.803C523.978 388.693 526.407 388.859 528.896 390.29C533.475 392.921 537.05 399.116 537.038 404.396C537.032 407.264 535.963 409.456 534.039 410.572C533.202 411.047 532.275 411.291 531.289 411.291C530 411.291 528.611 410.881 527.209 410.067ZM525.552 395.867C525.071 396.146 524.798 396.835 524.798 397.75C524.798 400.084 526.508 403.041 528.528 404.211C529.329 404.669 530.06 404.776 530.541 404.497C531.022 404.217 531.301 403.528 531.307 402.608C531.313 400.268 529.603 397.31 527.577 396.152C527.073 395.861 526.592 395.713 526.188 395.713C525.95 395.713 525.736 395.766 525.552 395.867Z"
        fill="url(#paint29_linear_61_852)"></path>
    <path
        d="M508.298 172.158C503.73 169.527 500.161 163.333 500.161 158.065C500.161 155.202 501.218 153.011 503.142 151.9C505.073 150.783 507.502 150.956 509.99 152.387C514.569 155.012 518.144 161.207 518.127 166.492C518.121 169.361 517.058 171.553 515.127 172.669C514.29 173.144 513.363 173.388 512.378 173.388C511.095 173.382 509.699 172.972 508.298 172.158ZM506.652 157.958C506.171 158.237 505.892 158.926 505.892 159.841C505.892 162.175 507.603 165.132 509.622 166.302C510.424 166.76 511.154 166.867 511.635 166.587C512.122 166.314 512.401 165.619 512.401 164.699C512.407 162.359 510.697 159.407 508.672 158.243C508.167 157.952 507.686 157.804 507.282 157.804C507.038 157.809 506.825 157.857 506.652 157.958Z"
        fill="url(#paint30_linear_61_852)"></path>
    <defs>
        <linearGradient id="paint0_linear_61_852" gradientUnits="userSpaceOnUse" x1="360.556" x2="201.324" y1="516.841"
            y2="-7.50109">
            <stop offset="0.038" stop-color="#A5CBEF"></stop>
            <stop offset="0.6654" stop-color="#EAF3FB"></stop>
            <stop offset="1" stop-color="#A5CBEF"></stop>
        </linearGradient>
        <linearGradient id="paint1_linear_61_852" gradientUnits="userSpaceOnUse" x1="273.795" x2="490.369" y1="386.459"
            y2="386.459">
            <stop stop-color="white"></stop>
            <stop offset="1" stop-color="#7EA7DF"></stop>
        </linearGradient>
        <linearGradient id="paint2_linear_61_852" gradientUnits="userSpaceOnUse" x1="286.088" x2="321.004" y1="323.972"
            y2="323.972">
            <stop offset="0.0212" stop-color="#FFC107"></stop>
            <stop offset="0.3187" stop-color="#FFAF04"></stop>
            <stop offset="0.7097" stop-color="#FF9E01"></stop>
            <stop offset="1" stop-color="#FF9800"></stop>
        </linearGradient>
        <linearGradient id="paint3_linear_61_852" gradientUnits="userSpaceOnUse" x1="417.368" x2="437.384" y1="472.333"
            y2="472.333">
            <stop offset="0.0212" stop-color="#FFC107"></stop>
            <stop offset="0.3187" stop-color="#FFAF04"></stop>
            <stop offset="0.7097" stop-color="#FF9E01"></stop>
            <stop offset="1" stop-color="#FF9800"></stop>
        </linearGradient>
        <linearGradient id="paint4_linear_61_852" gradientUnits="userSpaceOnUse" x1="254.034" x2="92.4313" y1="152.892"
            y2="-1.49632">
            <stop stop-color="#3C5185"></stop>
            <stop offset="0.128" stop-color="#41588E"></stop>
            <stop offset="0.6948" stop-color="#5573B1"></stop>
            <stop offset="1" stop-color="#5D7DBE"></stop>
        </linearGradient>
        <linearGradient id="paint5_linear_61_852" gradientUnits="userSpaceOnUse" x1="262.405" x2="90.6234" y1="78.6646"
            y2="78.6646">
            <stop stop-color="#4A65A3"></stop>
            <stop offset="1" stop-color="#3C5185"></stop>
        </linearGradient>
        <linearGradient id="paint6_linear_61_852" gradientUnits="userSpaceOnUse" x1="100.409" x2="133.828" y1="46.5509"
            y2="46.5509">
            <stop offset="0.0212" stop-color="#FFC107"></stop>
            <stop offset="0.3187" stop-color="#FFAF04"></stop>
            <stop offset="0.7097" stop-color="#FF9E01"></stop>
            <stop offset="1" stop-color="#FF9800"></stop>
        </linearGradient>
        <linearGradient id="paint7_linear_61_852" gradientUnits="userSpaceOnUse" x1="262.405" x2="90.6234" y1="153.521"
            y2="153.521">
            <stop stop-color="#7EA7DF"></stop>
            <stop offset="1" stop-color="white"></stop>
        </linearGradient>
        <linearGradient id="paint8_linear_61_852" gradientUnits="userSpaceOnUse" x1="100.409" x2="133.828" y1="121.404"
            y2="121.404">
            <stop offset="0.0212" stop-color="#FFC107"></stop>
            <stop offset="0.3187" stop-color="#FFAF04"></stop>
            <stop offset="0.7097" stop-color="#FF9E01"></stop>
            <stop offset="1" stop-color="#FF9800"></stop>
        </linearGradient>
        <linearGradient id="paint9_linear_61_852" gradientUnits="userSpaceOnUse" x1="87.4446" x2="203.767" y1="288.83"
            y2="288.83">
            <stop stop-color="#4A65A3"></stop>
            <stop offset="1" stop-color="#3C5185"></stop>
        </linearGradient>
        <linearGradient id="paint10_linear_61_852" gradientUnits="userSpaceOnUse" x1="81.5285" x2="191.686" y1="293.476"
            y2="293.476">
            <stop stop-color="#3C5185"></stop>
            <stop offset="0.128" stop-color="#41588E"></stop>
            <stop offset="0.6948" stop-color="#5573B1"></stop>
            <stop offset="1" stop-color="#5D7DBE"></stop>
        </linearGradient>
        <linearGradient id="paint11_linear_61_852" gradientUnits="userSpaceOnUse" x1="131.797" x2="109.71" y1="339.028"
            y2="283.453">
            <stop stop-color="#FFC107"></stop>
            <stop offset="0.8501" stop-color="#FF9800"></stop>
        </linearGradient>
        <linearGradient id="paint12_linear_61_852" gradientUnits="userSpaceOnUse" x1="131.849" x2="103.71" y1="341.339"
            y2="288.621">
            <stop offset="0.1499" stop-color="#FF9800"></stop>
            <stop offset="1" stop-color="#FFC107"></stop>
        </linearGradient>
        <linearGradient id="paint13_linear_61_852" gradientUnits="userSpaceOnUse" x1="322.638" x2="402.114" y1="179.206"
            y2="179.206">
            <stop stop-color="#3C5185"></stop>
            <stop offset="0.128" stop-color="#41588E"></stop>
            <stop offset="0.6948" stop-color="#5573B1"></stop>
            <stop offset="1" stop-color="#5D7DBE"></stop>
        </linearGradient>
        <linearGradient id="paint14_linear_61_852" gradientUnits="userSpaceOnUse" x1="387.823" x2="310.144" y1="228.618"
            y2="128.365">
            <stop stop-color="#3C5185"></stop>
            <stop offset="0.128" stop-color="#41588E"></stop>
            <stop offset="0.6948" stop-color="#5573B1"></stop>
            <stop offset="1" stop-color="#5D7DBE"></stop>
        </linearGradient>
        <linearGradient id="paint15_linear_61_852" gradientUnits="userSpaceOnUse" x1="143.119" x2="163.697" y1="560.567"
            y2="560.567">
            <stop stop-color="#4A65A3"></stop>
            <stop offset="0.3998" stop-color="#445C95"></stop>
            <stop offset="1" stop-color="#3C5185"></stop>
        </linearGradient>
        <linearGradient id="paint16_linear_61_852" gradientUnits="userSpaceOnUse" x1="135.917" x2="159.528" y1="455.536"
            y2="455.536">
            <stop stop-color="#A8D9FB"></stop>
            <stop offset="0.0934" stop-color="#B3DEFB"></stop>
            <stop offset="0.4944" stop-color="#DCF0FD"></stop>
            <stop offset="0.8103" stop-color="#F6FBFF"></stop>
            <stop offset="1" stop-color="white"></stop>
        </linearGradient>
        <linearGradient id="paint17_linear_61_852" gradientUnits="userSpaceOnUse" x1="143.132" x2="182.333" y1="549.726"
            y2="549.726">
            <stop stop-color="#4A65A3"></stop>
            <stop offset="0.3998" stop-color="#445C95"></stop>
            <stop offset="1" stop-color="#3C5185"></stop>
        </linearGradient>
        <linearGradient id="paint18_linear_61_852" gradientUnits="userSpaceOnUse" x1="142.992" x2="183.8" y1="483.735"
            y2="483.735">
            <stop stop-color="#A8D9FB"></stop>
            <stop offset="0.0934" stop-color="#B3DEFB"></stop>
            <stop offset="0.4944" stop-color="#DCF0FD"></stop>
            <stop offset="0.8103" stop-color="#F6FBFF"></stop>
            <stop offset="1" stop-color="white"></stop>
        </linearGradient>
        <linearGradient id="paint19_linear_61_852" gradientUnits="userSpaceOnUse" x1="194.031" x2="170.416" y1="466.991"
            y2="466.991">
            <stop stop-color="#A8D9FB"></stop>
            <stop offset="0.0934" stop-color="#B3DEFB"></stop>
            <stop offset="0.4944" stop-color="#DCF0FD"></stop>
            <stop offset="0.8103" stop-color="#F6FBFF"></stop>
            <stop offset="1" stop-color="white"></stop>
        </linearGradient>
        <linearGradient id="paint20_linear_61_852" gradientUnits="userSpaceOnUse" x1="417.899" x2="554.695" y1="268.037"
            y2="268.037">
            <stop stop-color="white"></stop>
            <stop offset="1" stop-color="#7EA7DF"></stop>
        </linearGradient>
        <linearGradient id="paint21_linear_61_852" gradientUnits="userSpaceOnUse" x1="455.075" x2="509.142" y1="252.753"
            y2="252.753">
            <stop offset="0.1499" stop-color="#FF9800"></stop>
            <stop offset="1" stop-color="#FFC107"></stop>
        </linearGradient>
        <linearGradient id="paint22_linear_61_852" gradientUnits="userSpaceOnUse" x1="411.81" x2="401.875" y1="300.046"
            y2="300.046">
            <stop stop-color="#4A65A3"></stop>
            <stop offset="0.3998" stop-color="#445C95"></stop>
            <stop offset="1" stop-color="#3C5185"></stop>
        </linearGradient>
        <linearGradient id="paint23_linear_61_852" gradientUnits="userSpaceOnUse" x1="119.269" x2="109.335" y1="172.73"
            y2="172.73">
            <stop stop-color="#4A65A3"></stop>
            <stop offset="0.3998" stop-color="#445C95"></stop>
            <stop offset="1" stop-color="#3C5185"></stop>
        </linearGradient>
        <linearGradient id="paint24_linear_61_852" gradientUnits="userSpaceOnUse" x1="57.2383" x2="44.9072" y1="80.0452"
            y2="80.0452">
            <stop stop-color="#4A65A3"></stop>
            <stop offset="0.3998" stop-color="#445C95"></stop>
            <stop offset="1" stop-color="#3C5185"></stop>
        </linearGradient>
        <linearGradient id="paint25_linear_61_852" gradientUnits="userSpaceOnUse" x1="334.926" x2="324.991" y1="42.0872"
            y2="42.0872">
            <stop stop-color="#4A65A3"></stop>
            <stop offset="0.3998" stop-color="#445C95"></stop>
            <stop offset="1" stop-color="#3C5185"></stop>
        </linearGradient>
        <linearGradient id="paint26_linear_61_852" gradientUnits="userSpaceOnUse" x1="16.1758" x2="0" y1="247.931"
            y2="247.931">
            <stop stop-color="#4A65A3"></stop>
            <stop offset="0.3998" stop-color="#445C95"></stop>
            <stop offset="1" stop-color="#3C5185"></stop>
        </linearGradient>
        <linearGradient id="paint27_linear_61_852" gradientUnits="userSpaceOnUse" x1="90.067" x2="82.1326" y1="354.7"
            y2="354.7">
            <stop stop-color="#4A65A3"></stop>
            <stop offset="0.3998" stop-color="#445C95"></stop>
            <stop offset="1" stop-color="#3C5185"></stop>
        </linearGradient>
        <linearGradient id="paint28_linear_61_852" gradientUnits="userSpaceOnUse" x1="421.596" x2="410.443" y1="134.402"
            y2="134.402">
            <stop stop-color="#4A65A3"></stop>
            <stop offset="0.3998" stop-color="#445C95"></stop>
            <stop offset="1" stop-color="#3C5185"></stop>
        </linearGradient>
        <linearGradient id="paint29_linear_61_852" gradientUnits="userSpaceOnUse" x1="537.037" x2="519.063" y1="400.182"
            y2="400.182">
            <stop stop-color="#4A65A3"></stop>
            <stop offset="0.3998" stop-color="#445C95"></stop>
            <stop offset="1" stop-color="#3C5185"></stop>
        </linearGradient>
        <linearGradient id="paint30_linear_61_852" gradientUnits="userSpaceOnUse" x1="518.128" x2="500.16" y1="162.276"
            y2="162.276">
            <stop stop-color="#4A65A3"></stop>
            <stop offset="0.3998" stop-color="#445C95"></stop>
            <stop offset="1" stop-color="#3C5185"></stop>
        </linearGradient>
    </defs>
</svg>